<svg width="28" height="28" viewBox="0 0 28 28" fill="none" xmlns="http://www.w3.org/2000/svg">
<g id="chart-breakout-square">
<path id="Icon" d="M12.8333 3.50065H9.1C7.13982 3.50065 6.15972 3.50065 5.41103 3.88213C4.75247 4.21768 4.21703 4.75312 3.88148 5.41168C3.5 6.16038 3.5 7.14047 3.5 9.10065V18.9007C3.5 20.8608 3.5 21.8409 3.88148 22.5896C4.21703 23.2482 4.75247 23.7836 5.41103 24.1192C6.15972 24.5007 7.13982 24.5007 9.1 24.5007H18.9C20.8602 24.5007 21.8403 24.5007 22.589 24.1192C23.2475 23.7836 23.783 23.2482 24.1185 22.5896C24.5 21.8409 24.5 20.8608 24.5 18.9007V15.1673M14 9.33398H18.6667V14.0007M18.0833 4.08398V2.33398M22.6792 5.32142L23.9167 4.08398M23.9286 9.91732H25.6786M3.5 15.5723C4.2606 15.6897 5.03985 15.7507 5.83333 15.7507C10.9508 15.7507 15.4762 13.2162 18.223 9.33398" stroke="white" stroke-width="2" stroke-linecap="round" stroke-linejoin="round"/>
</g>
</svg>
