<svg width="28" height="28" viewBox="0 0 28 28" fill="none" xmlns="http://www.w3.org/2000/svg">
<g id="eye">
<g id="Icon">
<path d="M2.82348 14.8327C2.66459 14.5811 2.58515 14.4553 2.54068 14.2613C2.50727 14.1156 2.50727 13.8857 2.54068 13.74C2.58515 13.546 2.66459 13.4202 2.82348 13.1686C4.13645 11.0896 8.04463 5.83398 14.0005 5.83398C19.9563 5.83398 23.8645 11.0896 25.1775 13.1686C25.3364 13.4202 25.4158 13.546 25.4603 13.74C25.4937 13.8857 25.4937 14.1156 25.4603 14.2613C25.4158 14.4553 25.3364 14.5811 25.1775 14.8327C23.8645 16.9117 19.9563 22.1673 14.0005 22.1673C8.04463 22.1673 4.13645 16.9117 2.82348 14.8327Z" stroke="white" stroke-width="2" stroke-linecap="round" stroke-linejoin="round"/>
<path d="M14.0005 17.5007C15.9335 17.5007 17.5005 15.9336 17.5005 14.0007C17.5005 12.0677 15.9335 10.5007 14.0005 10.5007C12.0675 10.5007 10.5005 12.0677 10.5005 14.0007C10.5005 15.9336 12.0675 17.5007 14.0005 17.5007Z" stroke="white" stroke-width="2" stroke-linecap="round" stroke-linejoin="round"/>
</g>
</g>
</svg>
