<svg width="18" height="22" viewBox="0 0 18 22" fill="none" xmlns="http://www.w3.org/2000/svg">
<g id="Icon">
<path d="M14.4926 7C14.4926 5.4087 13.9139 3.88258 12.8839 2.75736C11.8538 1.63214 10.4567 1 9 1C7.54327 1 6.14621 1.63214 5.11615 2.75736C4.08608 3.88258 3.5074 5.4087 3.5074 7C3.5074 10.0902 2.79379 12.206 1.99663 13.6054C1.32421 14.7859 0.987999 15.3761 1.00033 15.5408C1.01398 15.7231 1.04933 15.7926 1.18383 15.9016C1.30529 16 1.85284 16 2.94794 16H15.0521C16.1472 16 16.6947 16 16.8162 15.9016C16.9507 15.7926 16.986 15.7231 16.9997 15.5408C17.012 15.3761 16.6758 14.7859 16.0034 13.6054C15.2062 12.206 14.4926 10.0902 14.4926 7Z" fill="white"/>
<path d="M6.57792 20C7.22343 20.6224 8.07134 21 9 21C9.92866 21 10.7766 20.6224 11.4221 20M14.4926 7C14.4926 5.4087 13.9139 3.88258 12.8839 2.75736C11.8538 1.63214 10.4567 1 9 1C7.54327 1 6.14621 1.63214 5.11615 2.75736C4.08608 3.88258 3.5074 5.4087 3.5074 7C3.5074 10.0902 2.79379 12.206 1.99663 13.6054C1.32421 14.7859 0.987999 15.3761 1.00033 15.5408C1.01398 15.7231 1.04933 15.7926 1.18383 15.9016C1.30529 16 1.85284 16 2.94794 16H15.0521C16.1472 16 16.6947 16 16.8162 15.9016C16.9507 15.7926 16.986 15.7231 16.9997 15.5408C17.012 15.3761 16.6758 14.7859 16.0034 13.6054C15.2062 12.206 14.4926 10.0902 14.4926 7Z" stroke="white" stroke-width="2" stroke-linecap="round" stroke-linejoin="round"/>
</g>
</svg>
