<svg width="28" height="28" viewBox="0 0 28 28" fill="none" xmlns="http://www.w3.org/2000/svg">
<g id="tag-01">
<path id="Icon" d="M9.33338 9.33398H9.34504M2.33337 6.06732L2.33337 11.2876C2.33337 11.8583 2.33337 12.1437 2.39784 12.4122C2.455 12.6503 2.54928 12.8779 2.67721 13.0866C2.82151 13.3221 3.02329 13.5239 3.42684 13.9274L12.3736 22.8742C13.7596 24.2602 14.4527 24.9533 15.2518 25.2129C15.9548 25.4413 16.712 25.4413 17.4149 25.2129C18.2141 24.9533 18.9071 24.2602 20.2932 22.8742L22.8736 20.2938C24.2596 18.9077 24.9527 18.2147 25.2123 17.4155C25.4407 16.7126 25.4407 15.9554 25.2123 15.2524C24.9527 14.4533 24.2596 13.7602 22.8736 12.3742L13.9268 3.42745C13.5233 3.0239 13.3215 2.82212 13.086 2.67782C12.8773 2.54989 12.6497 2.45561 12.4116 2.39845C12.143 2.33398 11.8577 2.33398 11.287 2.33398L6.06671 2.33398C4.75992 2.33398 4.10652 2.33398 3.6074 2.5883C3.16835 2.81201 2.8114 3.16896 2.58769 3.60801C2.33337 4.10713 2.33337 4.76053 2.33337 6.06732ZM9.91671 9.33398C9.91671 9.65615 9.65554 9.91732 9.33338 9.91732C9.01121 9.91732 8.75004 9.65615 8.75004 9.33398C8.75004 9.01182 9.01121 8.75065 9.33338 8.75065C9.65554 8.75065 9.91671 9.01182 9.91671 9.33398Z" stroke="white" stroke-width="2" stroke-linecap="round" stroke-linejoin="round"/>
</g>
</svg>
